<?xml version="1.0" standalone="no"?>
<!DOCTYPE svg PUBLIC "-//W3C//DTD SVG 20010904//EN"
 "http://www.w3.org/TR/2001/REC-SVG-20010904/DTD/svg10.dtd">
<svg version="1.0" xmlns="http://www.w3.org/2000/svg"
 width="324.000000pt" height="311.000000pt" viewBox="0 0 324.000000 311.000000"
 preserveAspectRatio="xMidYMid meet">

<g transform="translate(0.000000,311.000000) scale(0.100000,-0.100000)"
fill="#000000" stroke="none">
<path d="M2095 2574 c-103 -22 -224 -75 -323 -140 -96 -65 -246 -206 -240
-226 8 -23 35 -20 84 12 154 97 413 148 619 121 448 -59 786 -324 860 -675 11
-55 13 -58 20 -33 14 53 -1 297 -23 370 -45 150 -110 255 -224 363 -118 112
-240 176 -400 209 -88 19 -281 18 -373 -1z"/>
<path d="M447 1963 c-90 -277 -35 -562 153 -796 204 -254 548 -401 862 -369
241 25 478 149 625 328 32 40 35 47 21 60 -14 14 -21 12 -73 -22 -142 -90
-282 -133 -461 -141 -197 -9 -359 24 -527 108 -213 106 -373 258 -472 449 -60
117 -85 212 -94 350 l-7 115 -27 -82z"/>
<path d="M2404 1520 c-8 -8 -7 -32 2 -78 18 -93 17 -286 -2 -380 -69 -342
-336 -613 -689 -703 -104 -26 -306 -31 -413 -10 -143 28 -308 97 -435 181 -32
22 -62 40 -65 40 -14 0 137 -144 198 -190 298 -222 703 -281 1057 -155 457
163 670 562 531 995 -22 71 -107 244 -139 285 -22 28 -30 30 -45 15z"/>
<path d="M2295 1393 c-101 -328 -351 -573 -680 -669 -72 -21 -118 -27 -230
-31 -215 -7 -368 30 -550 136 -109 63 -282 235 -353 351 -29 46 -52 82 -52 79
0 -3 13 -45 30 -93 56 -168 139 -295 272 -422 90 -85 137 -118 248 -174 201
-101 420 -143 627 -120 340 37 591 209 704 481 47 115 63 209 63 359 0 155 -6
190 -33 190 -15 0 -24 -19 -46 -87z"/>
</g>
</svg>
